<svg xmlns="http://www.w3.org/2000/svg" xmlns:xlink="http://www.w3.org/1999/xlink" viewBox="0 0 51.6 51.56"><defs><style>.cls-1{fill:none;}.cls-2{clip-path:url(#clip-path);}.cls-3{fill:#194e99;}</style><clipPath id="clip-path" transform="translate(0.08 0)"><rect class="cls-1" width="51.52" height="51.52"/></clipPath></defs><title>RApidez</title><g id="Capa_2" data-name="Capa 2"><g id="Capa_1-2" data-name="Capa 1"><g id="Grupo_1266" data-name="Grupo 1266"><g class="cls-2"><g id="Grupo_1264" data-name="Grupo 1264"><path id="Trazado_542" data-name="Trazado 542" class="cls-3" d="M40.57,18.52a5.37,5.37,0,1,1,0-7.61,5.46,5.46,0,0,1,0,7.61M50.48,0a39.87,39.87,0,0,0-28.8,13.26A27.37,27.37,0,0,0,3,21.11a1.14,1.14,0,0,0-.27,1.1,1,1,0,0,0,.86.7l8.3,1.18-1,1.18a1,1,0,0,0,0,1.41l0,0h0l9.55,9.65A17.16,17.16,0,0,1,37.49,20.42a16.85,16.85,0,0,1,7.38,1.67,38.24,38.24,0,0,0,6.57-21A1,1,0,0,0,50.58,0h-.14" transform="translate(0.08 0)"/></g></g><g class="cls-2"><g id="Grupo_1265" data-name="Grupo 1265"><path id="Trazado_543" data-name="Trazado 543" class="cls-3" d="M5.85,36.27C3.53,38.57.41,49,0,50.13A1.11,1.11,0,0,0,.24,51.2a1,1,0,0,0,.76.32.62.62,0,0,0,.33,0c1.18-.35,11.54-3.49,13.85-5.89a6.65,6.65,0,1,0-9.41-9.41h0" transform="translate(0.08 0)"/></g></g></g><path id="Trazado_544" data-name="Trazado 544" class="cls-3" d="M43.59,34.9l-7,7.52a1.59,1.59,0,0,1-1.18.51,1.54,1.54,0,0,1-1-.42L30.64,39.3A1.61,1.61,0,0,1,30.49,37a1.58,1.58,0,0,1,2.23-.18l2.59,2.22,5.89-6.4a1.66,1.66,0,0,1,2.27,0,1.67,1.67,0,0,1,0,2.3m-6-11.32a10.42,10.42,0,1,0,.12-.06h0" transform="translate(0.08 0)"/></g></g></svg>