<svg xmlns="http://www.w3.org/2000/svg" viewBox="0 0 242.24 314.91"><defs><style>.cls-1{fill:#52c0df;opacity:0.4;}.cls-1,.cls-10,.cls-11,.cls-12,.cls-13,.cls-14,.cls-15,.cls-16,.cls-17,.cls-18,.cls-19,.cls-6,.cls-7,.cls-9{isolation:isolate;}.cls-10,.cls-11,.cls-12,.cls-13,.cls-14,.cls-2{fill:#00b6e6;}.cls-3{fill:#fff;}.cls-4{fill:none;}.cls-5{fill:#bfbebe;}.cls-6,.cls-7{font-size:10.66px;font-family:Neufreit-ExtraBold, Neufreit;font-weight:800;}.cls-6{fill:#e8883b;}.cls-7{fill:#184e98;}.cls-8{fill:#0b92d1;}.cls-10,.cls-11{font-size:9.69px;}.cls-10,.cls-11,.cls-16{font-family:Roboto-Bold, Roboto;font-weight:700;}.cls-11{letter-spacing:0.01em;}.cls-12,.cls-13,.cls-14,.cls-17{font-size:6.78px;}.cls-12,.cls-13,.cls-14,.cls-15,.cls-17,.cls-18,.cls-19{font-family:Roboto-Medium, Roboto;font-weight:500;}.cls-13{letter-spacing:-0.01em;}.cls-14{letter-spacing:-0.02em;}.cls-15,.cls-18{font-size:4.36px;}.cls-15,.cls-16,.cls-17,.cls-18,.cls-19{fill:#e9893b;}.cls-16{font-size:14.05px;}.cls-18{letter-spacing:-0.01em;}.cls-19{font-size:5.37px;}.cls-20{letter-spacing:-0.01em;}.cls-21{fill:#52bfde;}.cls-22{fill:#fefefe;}.cls-23{fill:#1d5098;}</style></defs><title>Home MB</title><g id="Capa_2" data-name="Capa 2"><g id="Capa_1-2" data-name="Capa 1"><path id="Tool_bar_bg-2" data-name="Tool bar bg-2" class="cls-1" d="M191.42,6.19H51.1L40.85,17.42V38.26H202.52V18Z"/><ellipse id="Elipse_53" data-name="Elipse 53" class="cls-2" cx="121.12" cy="282.93" rx="121.12" ry="31.98"/><path id="Rectángulo_2224" data-name="Rectángulo 2224" class="cls-3" d="M53.78,39.48H190c6.69,0,12.11,4.92,12.11,11V281.84c0,6.07-5.42,11-12.11,11H53.78c-6.69,0-12.11-4.92-12.11-11V50.47C41.67,44.4,47.09,39.48,53.78,39.48Z"/><rect id="Bounds" class="cls-4" x="146.15" y="276.15" width="44.77" height="21.28"/><rect id="Bounds-2" class="cls-4" x="101.38" y="276.15" width="44.33" height="21.28"/><rect id="Bounds-3" class="cls-4" x="56.17" y="276.15" width="44.77" height="21.28"/><path id="ic_create_24px" data-name="ic create 24px" class="cls-3" d="M160.6,186.72v1.44h1.45l4.26-4.26-1.45-1.44Zm6.82-3.93a.39.39,0,0,0,0-.55h0l-.9-.9a.38.38,0,0,0-.54,0h0l-.71.71,1.45,1.44Z"/><g id="Trazado_558-2" data-name="Trazado 558-2"><path class="cls-4" d="M61,0H182.68a25.92,25.92,0,0,1,25.73,26.1V269.84a25.92,25.92,0,0,1-25.73,26.1H61a25.92,25.92,0,0,1-25.73-26.1V26.1A25.92,25.92,0,0,1,61,0Z"/><path class="cls-5" d="M61,7.27A18.67,18.67,0,0,0,42.54,26.1V269.84A18.67,18.67,0,0,0,61,288.67H182.68a18.67,18.67,0,0,0,18.46-18.83V26.1A18.67,18.67,0,0,0,182.68,7.27H61M61,0H182.68a25.91,25.91,0,0,1,25.73,26.09h0V269.84a25.92,25.92,0,0,1-25.73,26.1H61a25.92,25.92,0,0,1-25.73-26.1V26.1A25.91,25.91,0,0,1,61,0Z"/></g><g id="Grupo_1336" data-name="Grupo 1336"><g id="MoneyBlink_" data-name="MoneyBlink "><text class="cls-6" transform="translate(87.62 28.47)">M</text><text class="cls-7" transform="translate(97.32 28.47)">oney</text><text class="cls-6" transform="translate(121 28.47)">B</text><text class="cls-7" transform="translate(127.49 28.47)">link</text><text class="cls-6" transform="translate(146.26 28.47)">$</text></g></g><g id="Tool_bar_contents" data-name="Tool bar contents"><g id="Burger_Button" data-name="Burger Button"><rect id="Bounds-8" class="cls-4" x="49.87" y="19.22" width="10.19" height="10.64"/><path id="Icon" class="cls-8" d="M51.25,27.25H59v-.86H51.25Zm0-2.14H59v-.86H51.25Zm0-3V23H59v-.86Z"/></g></g><g id="Grupo_1310" data-name="Grupo 1310"><path id="ic_get_app_24px" data-name="ic get app 24px" class="cls-2" d="M62.82,51.68H61.11v2.57H58.52V51.68H56.83l3-3Zm-6-3.85V47h6v.86Z"/><g id="ENVIAR"><g class="cls-9"><text class="cls-10" transform="translate(65.71 55.25)">ENV</text><text class="cls-11" transform="translate(84.34 55.25)">I</text><text class="cls-10" transform="translate(87.25 55.25)">AR</text></g></g></g><g id="Grupo_1311" data-name="Grupo 1311"><path id="ic_get_app_24px-2" data-name="ic get app 24px-2" class="cls-2" d="M161.32,49.35h-1.66V46.78h-2.57v2.57h-1.71l3,3Zm-6,3.85v.86h6V53.2Z"/><g id="PEDIR"><text class="cls-10" transform="translate(162.55 54.59)">PEDIR</text></g></g><g id="Grupo_1299" data-name="Grupo 1299"><g id="Invitar"><text class="cls-12" transform="translate(62.14 276.81)">Invitar</text></g><g id="Grupo_1284" data-name="Grupo 1284"><g id="Grupo_1283" data-name="Grupo 1283"><circle id="Elipse_53-2" data-name="Elipse 53-2" class="cls-2" cx="69.96" cy="258.28" r="10.37"/><path id="Trazado_609" data-name="Trazado 609" class="cls-3" d="M69.8,257.8c2.11,0,2.92-2.11,3.08-3.89.32-2.11-.81-3.89-3.08-3.89-2.43,0-3.4,1.62-3.08,3.89C66.88,255.69,67.65,257.8,69.8,257.8Z"/><rect id="SVGID" class="cls-4" x="64.29" y="250.02" width="13.45" height="15.4"/></g><path id="Trazado_611" data-name="Trazado 611" class="cls-3" d="M75,265.25H64.65a.74.74,0,0,1-.65-.81l.49-4.54c.16-1.78,2.43-2.75,2.75-2.43a3.9,3.9,0,0,0,5.19,0c.48,0,2.59.49,2.76,2.11l.48,4.86a.73.73,0,0,1-.66.81Z"/></g></g><g id="Grupo_1300" data-name="Grupo 1300"><g id="Paquetes"><g class="cls-9"><text class="cls-13" transform="translate(92.37 276.81)">P</text><text class="cls-12" transform="translate(96.67 276.81)">aquete</text></g></g><g id="Grupo_1285" data-name="Grupo 1285"><circle id="Elipse_54" data-name="Elipse 54" class="cls-2" cx="105.8" cy="258.28" r="10.37"/><rect id="SVGID_1_2" data-name="SVGID 1 2" class="cls-4" x="99.8" y="249.53" width="11.67" height="15.24"/><path id="Trazado_612" data-name="Trazado 612" class="cls-3" d="M106.65,261.69a3.68,3.68,0,0,1,3.61-3.73h.93l-.33-4.22a.51.51,0,0,0-.48-.48h-1.62v-.48a3.33,3.33,0,0,0-2.92-3.25,3.21,3.21,0,0,0-3.4,3h0v.76h-1.67a.52.52,0,0,0-.48.48l-.48,10.36c0,.16,0,.32.16.32a.52.52,0,0,0,.32.16h7.78A3.45,3.45,0,0,1,106.65,261.69Zm.81-7a.53.53,0,0,1,.48-.49.6.6,0,0,1,.65.54.2.2,0,0,1,0,.11.68.68,0,0,1-.64.65.87.87,0,0,1-.49-.81Zm-4.21.65a.56.56,0,0,1-.54-.58v0a.74.74,0,0,1,0-.21c0-.17.16-.17.33-.33s.81.16.81.65c0,.32-.33.49-.65.49Zm.32-2.76a2,2,0,0,1,1.9-2.1h0a2.17,2.17,0,0,1,2.27,2.09h0v.67h-4.21Z"/><path id="Trazado_613" data-name="Trazado 613" class="cls-3" d="M103,264.6h7.78c.17,0,.33,0,.33-.17a.43.43,0,0,0,.16-.32l-.32-10.4a.53.53,0,0,0-.49-.49h-1.62v-.47a3.15,3.15,0,0,0-3.22-3.07h-.18a3.3,3.3,0,0,0-2.92,3.21v.48h-1.62c-.33-.16-.65,0-.65.32l-.16,4.35h.81a3.64,3.64,0,0,1,3.71,3.55v.12A3.57,3.57,0,0,1,103,264.6Zm.17-9.29a.65.65,0,1,1,0-1.29.53.53,0,0,1,.48.49.54.54,0,0,1-.24.73h0Zm4.21-.49a.57.57,0,0,1,.59-.53.79.79,0,0,1,.22.06c.16,0,.33,0,.33.31.16.33-.17.65-.49.65S107.42,255.14,107.42,254.82Zm.33-1.6h-4.22v-.8a2.18,2.18,0,0,1,2.25-2.09h0a2,2,0,0,1,1.95,2v.86Z"/></g></g><g id="Grupo_1301" data-name="Grupo 1301"><g id="Agendar"><text class="cls-12" transform="translate(129.78 276.81)">Agendar</text></g><g id="Grupo_1288" data-name="Grupo 1288"><g id="Grupo_1287" data-name="Grupo 1287"><circle id="Elipse_55" data-name="Elipse 55" class="cls-2" cx="141.77" cy="258.25" r="10.37"/><g id="Grupo_1286" data-name="Grupo 1286"><path id="Trazado_614" data-name="Trazado 614" class="cls-3" d="M137.39,253.71a.52.52,0,0,0,.49-.48V251.6a.43.43,0,0,0-.37-.48h-.12c-.32,0-.64.16-.64.48v1.63a.71.71,0,0,0,.64.48Z"/><path id="Trazado_615" data-name="Trazado 615" class="cls-3" d="M141.65,253.71a.41.41,0,0,0,.48-.35h0a.24.24,0,0,0,0-.12v-1.62a.43.43,0,0,0-.36-.49h-.12c-.33-.16-.49.16-.49.49v1.62A.53.53,0,0,0,141.65,253.71Z"/><path id="Trazado_616" data-name="Trazado 616" class="cls-3" d="M145.82,253.71a.42.42,0,0,0,.49-.36V251.6a.43.43,0,0,0-.37-.48h-.12a.43.43,0,0,0-.48.37.2.2,0,0,0,0,.11v1.63a.72.72,0,0,0,.48.48Z"/><path id="Trazado_617" data-name="Trazado 617" class="cls-3" d="M148.25,252.58H147v.48a1.14,1.14,0,0,1-2.27.21v-.69h-1.95v.48a1.14,1.14,0,0,1-2.27.21v-.69h-2.1v.48a1.12,1.12,0,0,1-1.08,1.14h-.06a1.05,1.05,0,0,1-1-1v-.65h-1.3a.76.76,0,0,0-.81.71h0v2H149v-1.94a.76.76,0,0,0-.7-.81h0Z"/><path id="Trazado_618" data-name="Trazado 618" class="cls-3" d="M134.15,255.82v8.31a.78.78,0,0,0,.72.81h7.06v-9.08Zm3.73,7.46a.42.42,0,0,1-.37.48h-1.25a.4.4,0,0,1-.47-.35v0a.2.2,0,0,1,0-.11v-.82a.43.43,0,0,1,.35-.48h1.26a.43.43,0,0,1,.49.36h0v.93Zm0-2.44a.42.42,0,0,1-.36.49h-1.26c-.32.16-.48-.16-.48-.49V260a.43.43,0,0,1,.35-.48h1.26a.53.53,0,0,1,.49.48Zm0-2.27a.42.42,0,0,1-.36.49h-1.26a.4.4,0,0,1-.47-.35v0a.24.24,0,0,1,0-.12v-.81a.43.43,0,0,1,.35-.48h1.26c.33-.16.49.16.49.48Zm3.24,4.7a.42.42,0,0,1-.36.49H139.5a.43.43,0,0,1-.48-.37.24.24,0,0,1,0-.12v-.81a.43.43,0,0,1,.35-.48h1.28a.52.52,0,0,1,.48.48Zm0-2.43a.42.42,0,0,1-.36.49H139.5c-.32.16-.48-.16-.48-.49V260a.43.43,0,0,1,.35-.48h1.28a.72.72,0,0,1,.48.48Zm0-2.27a.42.42,0,0,1-.36.49H139.5a.43.43,0,0,1-.48-.37.24.24,0,0,1,0-.12v-.81a.43.43,0,0,1,.35-.48h1.28c.16-.16.48.16.48.48Z"/><path id="Trazado_619" data-name="Trazado 619" class="cls-3" d="M149.06,255.82v8.31a.76.76,0,0,1-.7.81h-6.91v-9.08Zm-3.72,7.46a.43.43,0,0,0,.35.48H147a.42.42,0,0,0,.49-.36h0v-.93a.43.43,0,0,0-.37-.48h-1.25a.52.52,0,0,0-.48.48Zm0-2.44a.42.42,0,0,0,.34.49H147a.42.42,0,0,0,.49-.36h0V260a.43.43,0,0,0-.37-.48h-1.25a.43.43,0,0,0-.48.37.2.2,0,0,0,0,.11v.82Zm0-2.27a.42.42,0,0,0,.34.49H147a.42.42,0,0,0,.49-.36h0v-.93a.43.43,0,0,0-.37-.48h-1.25a.43.43,0,0,0-.48.37.2.2,0,0,0,0,.11v.82Zm-3.25,4.7a.44.44,0,0,0,.37.49h1.25c.33,0,.65-.16.65-.49v-.81A.43.43,0,0,0,144,262h-1.25c-.32,0-.65.16-.65.48Zm0-2.43a.44.44,0,0,0,.37.49h1.25c.33.16.65-.16.65-.49V260a.43.43,0,0,0-.37-.48h-1.25a.43.43,0,0,0-.48.37.2.2,0,0,0,0,.11v.82Zm0-2.27a.44.44,0,0,0,.37.49h1.25a.71.71,0,0,0,.65-.49v-.81a.43.43,0,0,0-.37-.48h-1.25a.43.43,0,0,0-.48.37.2.2,0,0,0,0,.11v.82Z"/></g></g><rect id="Rectángulo_2251" data-name="Rectángulo 2251" class="cls-3" x="136.26" y="262.3" width="1.13" height="0.81"/><rect id="Rectángulo_2252" data-name="Rectángulo 2252" class="cls-3" x="139.5" y="257.6" width="1.13" height="0.81"/><rect id="Rectángulo_2253" data-name="Rectángulo 2253" class="cls-3" x="136.26" y="260.03" width="1.13" height="0.81"/><rect id="Rectángulo_2254" data-name="Rectángulo 2254" class="cls-3" x="139.5" y="260.03" width="1.13" height="0.81"/><rect id="Rectángulo_2255" data-name="Rectángulo 2255" class="cls-3" x="136.26" y="257.6" width="1.13" height="0.81"/><rect id="Rectángulo_2256" data-name="Rectángulo 2256" class="cls-3" x="139.5" y="262.3" width="1.13" height="0.81"/><rect id="Rectángulo_2257" data-name="Rectángulo 2257" class="cls-3" x="145.82" y="262.3" width="1.13" height="0.81"/><rect id="Rectángulo_2258" data-name="Rectángulo 2258" class="cls-3" x="142.74" y="257.6" width="1.13" height="0.81"/><rect id="Rectángulo_2259" data-name="Rectángulo 2259" class="cls-3" x="145.82" y="260.03" width="1.13" height="0.81"/><rect id="Rectángulo_2260" data-name="Rectángulo 2260" class="cls-3" x="142.74" y="260.03" width="1.13" height="0.81"/><rect id="Rectángulo_2261" data-name="Rectángulo 2261" class="cls-3" x="145.82" y="257.6" width="1.13" height="0.81"/><rect id="Rectángulo_2262" data-name="Rectángulo 2262" class="cls-3" x="142.74" y="262.3" width="1.13" height="0.81"/></g></g><g id="Grupo_1302" data-name="Grupo 1302"><g id="Registro"><g class="cls-9"><text class="cls-12" transform="translate(163.63 276.37)">Regist</text><text class="cls-14" transform="translate(182.84 276.37)">r</text><text class="cls-12" transform="translate(185.1 276.37)">o</text></g></g><g id="Grupo_1289" data-name="Grupo 1289"><circle id="Elipse_56" data-name="Elipse 56" class="cls-2" cx="177.57" cy="258.35" r="10.37"/><path id="Trazado_620" data-name="Trazado 620" class="cls-3" d="M181,251.06V253a.78.78,0,0,0,.72.81h2Z"/><path id="Trazado_621" data-name="Trazado 621" class="cls-3" d="M184.21,260.13v-4.7a.42.42,0,0,0-.35-.48H182a2.26,2.26,0,0,1-2.11-2.11v-1.79a.43.43,0,0,0-.37-.48h-6.76a1.11,1.11,0,0,0-1.14,1.08h0v11.56a2.56,2.56,0,0,0,2.52,2.6h5.26C178.22,265,183.4,259.32,184.21,260.13Zm-7.78,5.67h5a2.56,2.56,0,0,0,2.59-2.52v-7C184.21,255.59,177.57,265,176.43,265.8Zm-1.78-13h2.92c.16,0,.32,0,.48.32a.48.48,0,0,1-.27.62.39.39,0,0,1-.21,0h-2.92c-.16,0-.48-.16-.48-.32-.17-.32.16-.61.48-.61Zm0,3.4c-.32,0-.65-.32-.48-.65,0-.16.32-.32.48-.32h4a.44.44,0,0,1,.49.37v.6Z"/><rect id="Rectángulo_2263" data-name="Rectángulo 2263" class="cls-2" x="174.33" y="258.51" width="0.97" height="4.7"/><rect id="Rectángulo_2264" data-name="Rectángulo 2264" class="cls-2" x="176.11" y="260.13" width="0.97" height="2.92"/><rect id="Rectángulo_2265" data-name="Rectángulo 2265" class="cls-2" x="177.89" y="259.32" width="1.13" height="3.89"/></g></g><g id="Grupo_1298" data-name="Grupo 1298"><rect id="Rectángulo_2202" data-name="Rectángulo 2202" class="cls-8" x="84.29" y="228.82" width="11.08" height="0.26"/><g id="Grupo_1291" data-name="Grupo 1291"><g id="Grupo_1290" data-name="Grupo 1290"><g id="Saldo"><text class="cls-15" transform="translate(84 228.02)">Saldo</text></g><g id="_31" data-name=" 31"><text class="cls-16" transform="translate(56.18 227.96)">$ 31</text></g></g><g id="_.00" data-name=" .00"><text class="cls-17" transform="translate(83.44 222.76)">.00</text></g></g></g><g id="Grupo_1338" data-name="Grupo 1338"><rect id="Rectángulo_2202-2" data-name="Rectángulo 2202-2" class="cls-8" x="146.95" y="227.73" width="18.24" height="0.27"/><g id="Grupo_1291-2" data-name="Grupo 1291-2"><g id="Grupo_1290-2" data-name="Grupo 1290-2"><g id="restantes"><g class="cls-9"><text class="cls-18" transform="translate(146.7 226.73)">r</text><text class="cls-15" transform="translate(148.34 226.73)">estantes</text></g></g><g id="_10" data-name=" 10"><text class="cls-16" transform="translate(128.93 227.96)">10</text></g></g><g id="Blinks_prepagados" data-name="Blinks prepagados"><text class="cls-19" transform="translate(146.44 222.7) scale(0.95 1)">Blinks P<tspan class="cls-20" x="19.45" y="0">r</tspan><tspan x="21.28" y="0">epagados</tspan></text></g></g></g><path class="cls-21" d="M124.77,193.16A64,64,0,1,1,189,129.36,63.74,63.74,0,0,1,124.77,193.16Z"/><path class="cls-22" d="M85,107.72a15.93,15.93,0,0,1,31.85-.08,16.11,16.11,0,0,1-16,16A15.93,15.93,0,0,1,85,107.72Z"/><path class="cls-22" d="M148.62,123.75A15.84,15.84,0,1,1,164.47,108,15.56,15.56,0,0,1,148.62,123.75Z"/><path class="cls-23" d="M125,156.79a30.53,30.53,0,0,1-21.15-8.5c-1.63-1.54-1.79-3.58-.48-4.89s3-1.18,4.75.4a24.19,24.19,0,0,0,33.53,0c1.8-1.66,3.49-1.77,4.88-.3,1.24,1.31,1.05,3.21-.54,4.74A30.42,30.42,0,0,1,125,156.79Z"/><path class="cls-23" d="M112.21,81.06a3,3,0,0,1-4.76,2.59A10.82,10.82,0,0,0,99.31,82a10.24,10.24,0,0,0-7.19,5.43c-1.06,2-2.49,2.64-4,2.08a3.18,3.18,0,0,1-1.9-4.35c3.62-9.17,16.85-12.7,24.71-6.61A3,3,0,0,1,112.21,81.06Z"/><path class="cls-23" d="M147.83,75.37c6.62.41,11.74,3.28,14.87,9.31,1,2,.56,3.68-1.2,4.57a2.89,2.89,0,0,1-4.26-1.59c-2.49-5.45-10.13-7.88-15.41-4.06a3,3,0,0,1-4.4-.75c-1-1.43-.72-3.09.89-4.34C141.09,76.34,144.37,75.64,147.83,75.37Z"/><path class="cls-23" d="M92.93,111.59a7.22,7.22,0,0,1,7.42-7.22,7.32,7.32,0,1,1-.19,14.64A7.24,7.24,0,0,1,92.93,111.59Z"/><path class="cls-23" d="M147.92,104.37a7.32,7.32,0,1,1-7.44,7.24A7.31,7.31,0,0,1,147.92,104.37Z"/></g></g></svg>