<svg xmlns="http://www.w3.org/2000/svg" viewBox="0 0 63.93 50.43"><defs><style>.cls-1{fill:#194e99;}</style></defs><title>Menor costo</title><g id="Capa_2" data-name="Capa 2"><g id="Capa_1-2" data-name="Capa 1"><path id="Trazado_555" data-name="Trazado 555" class="cls-1" d="M18.48,23.88H14.74V20.16h3.74Zm38.87.4a20.42,20.42,0,0,0-7.44-14,10.5,10.5,0,0,1-9.9,7H28v-3.7h3.86a10.44,10.44,0,0,1-2.49-6.77,9.37,9.37,0,0,1,0-1.06H25.48A7.53,7.53,0,0,0,18.33.23H12.78V9.12a20.22,20.22,0,0,0-7.31,8.67L0,19.25V32.74l5.47,1.47a20.47,20.47,0,0,0,7.58,8.84v7.38H24.28l1.16-4.12H35.67l1.16,4.12H48.08V43.09a20.53,20.53,0,0,0,9.21-15,4.53,4.53,0,0,1,1,.48l1,1a4.51,4.51,0,0,1,.88,2.62h3.74a7.7,7.7,0,0,0-6.49-7.92"/><path id="Trazado_556" data-name="Trazado 556" class="cls-1" d="M33.24,6.76A6.77,6.77,0,1,0,40,0h0a6.77,6.77,0,0,0-6.77,6.76h0"/></g></g></svg>