<svg xmlns="http://www.w3.org/2000/svg" xmlns:xlink="http://www.w3.org/1999/xlink" viewBox="0 0 305.46 70.39"><defs><style>.cls-1{fill:none;}.cls-2,.cls-4,.cls-6{fill:#194e99;}.cls-3,.cls-4,.cls-6{isolation:isolate;}.cls-4{font-size:9.98px;font-family:Roboto-Bold, Roboto;font-weight:700;}.cls-5{letter-spacing:-0.01em;}.cls-6{font-size:7.42px;font-family:Roboto-Regular, Roboto;}.cls-7{letter-spacing:-0.01em;}.cls-8{letter-spacing:-0.01em;}.cls-9{letter-spacing:-0.01em;}.cls-10{letter-spacing:-0.01em;}.cls-11{letter-spacing:0em;}.cls-12{clip-path:url(#clip-path);}.cls-13{letter-spacing:-0.02em;}.cls-14{letter-spacing:-0.01em;}</style><clipPath id="clip-path"><rect class="cls-1" x="8.61" y="2.86" width="26.26" height="26.26"/></clipPath></defs><title>Recurso 9</title><g id="Capa_2" data-name="Capa 2"><g id="Capa_1-2" data-name="Capa 1"><g id="Grupo_1269" data-name="Grupo 1269"><path id="Trazado_555" data-name="Trazado 555" class="cls-2" d="M257.08,13.45h-1.94V11.52h1.94Zm20.17.21a10.58,10.58,0,0,0-3.86-7.27A5.45,5.45,0,0,1,268.25,10H262V8.08h2a5.43,5.43,0,0,1-1.29-3.51,5,5,0,0,1,0-.55h-2A3.91,3.91,0,0,0,257,1.18h-2.88V5.79a10.5,10.5,0,0,0-3.79,4.5l-2.84.76v7l2.84.76a10.62,10.62,0,0,0,3.93,4.59v3.83h5.83l.6-2.14H266l.6,2.14h5.84V23.42a10.66,10.66,0,0,0,4.78-7.77,2.41,2.41,0,0,1,.51.25l.53.51a2.37,2.37,0,0,1,.46,1.36h1.94a4,4,0,0,0-3.37-4.11"/><path id="Trazado_556" data-name="Trazado 556" class="cls-2" d="M264.74,4.57a3.51,3.51,0,1,0,3.51-3.51h0a3.51,3.51,0,0,0-3.51,3.51h0"/><g id="EL_MENOR_COSTO" data-name="EL MENOR COSTO" class="cls-3"><text class="cls-4" transform="translate(222.32 42.87)">EL MENOR COS<tspan class="cls-5" x="70.21" y="0">T</tspan><tspan x="76.25" y="0">O</tspan></text></g><g id="del_mercado" data-name="del mercado" class="cls-3"><text class="cls-6" transform="translate(245.03 51.18)">del me<tspan class="cls-7" x="22.19" y="0">r</tspan><tspan x="24.63" y="0">cado</tspan></text></g></g><g id="Grupo_1267" data-name="Grupo 1267"><path id="Trazado_554" data-name="Trazado 554" class="cls-2" d="M100,12.3a11.75,11.75,0,0,1-7.22,10.87.7.7,0,0,1-.6,0A11.75,11.75,0,0,1,85,12.3V7a.75.75,0,0,1,.54-.74,9.14,9.14,0,0,0,4.2-2.88.75.75,0,0,1,.6-.28h4.36a1,1,0,0,1,.6.28,9,9,0,0,0,4.2,2.88.82.82,0,0,1,.48.47h0a1.42,1.42,0,0,0,0,.16V12.3Zm2.33-8.68A6,6,0,0,1,97,.42.77.77,0,0,0,96.35,0H88.69a.8.8,0,0,0-.7.42,6,6,0,0,1-5.33,3.2.77.77,0,0,0-.78.77v8a14.73,14.73,0,0,0,2.88,8.79,15,15,0,0,0,7.53,5.4.61.61,0,0,0,.46,0,14.91,14.91,0,0,0,10.41-14.19V4.41a.83.83,0,0,0-.79-.79m-5.68,7.76-4.84,4.84a.78.78,0,0,1-1.1,0h0L88.32,13.8a.78.78,0,0,1,0-1.11.8.8,0,0,1,1.11,0l1.86,1.87,4.3-4.29a.77.77,0,0,1,1.1,0,.78.78,0,0,1,0,1.11M94.32,4.66H90.67a10.62,10.62,0,0,1-4.15,2.91v4.75a10.18,10.18,0,0,0,6,9.3,10.17,10.17,0,0,0,6-9.3V7.57a10.62,10.62,0,0,1-4.15-2.91"/><g id="SEGURIDAD" class="cls-3"><text class="cls-4" transform="translate(68.44 41.66)">SEGURI<tspan class="cls-8" x="34.4" y="0">D</tspan><tspan x="40.78" y="0">AD</tspan></text></g><g id="y_privacidad_en_la" data-name="y privacidad en la" class="cls-3"><text class="cls-6" transform="translate(66.92 52.5)">y pri<tspan class="cls-9" x="13.82" y="0">v</tspan><tspan x="17.36" y="0">acidad en la</tspan></text></g><g id="información" class="cls-3"><text class="cls-6" transform="translate(74.54 61.41)">información</text></g><path id="Trazado_557" data-name="Trazado 557" class="cls-2" d="M79,70.32v-3.4h-.62v-.5H79v-.33a1.31,1.31,0,0,1,.37-1,1.39,1.39,0,0,1,1.06-.37,2.76,2.76,0,0,1,1,.23l-.12.55a2.49,2.49,0,0,0-.85-.18.91.91,0,0,0-.62.18.88.88,0,0,0-.19.58v.35h.81v.5h-.81v3.4Zm2.79,0h-.67V66.39h.67Zm1.73-3.93,0,.49a1.45,1.45,0,0,1,1.17-.56c.84,0,1.25.46,1.25,1.41v2.59h-.67V67.73a1,1,0,0,0-.18-.62.75.75,0,0,0-.6-.21,1.07,1.07,0,0,0-.58.18,1.19,1.19,0,0,0-.39.47v2.79h-.67V66.42h.64Zm5.89,3.93a1.06,1.06,0,0,1-.09-.42,1.51,1.51,0,0,1-1.11.48,1.42,1.42,0,0,1-1-.32,1,1,0,0,1-.37-.83,1.13,1.13,0,0,1,.47-1,2.15,2.15,0,0,1,1.31-.34h.65v-.3a.77.77,0,0,0-.21-.56.83.83,0,0,0-.62-.2,1,1,0,0,0-.6.18.57.57,0,0,0-.26.44h-.67a1,1,0,0,1,.21-.58,1.55,1.55,0,0,1,.55-.44,2,2,0,0,1,.79-.16,1.53,1.53,0,0,1,1.06.35,1.15,1.15,0,0,1,.39.92v1.8a2.32,2.32,0,0,0,.14.86v.07Zm-1.11-.51a1.15,1.15,0,0,0,.6-.16,1.3,1.3,0,0,0,.42-.42v-.81h-.53c-.83,0-1.23.23-1.23.72a.6.6,0,0,0,.21.48.8.8,0,0,0,.53.19Zm3.37-3.42,0,.49a1.47,1.47,0,0,1,1.18-.56c.83,0,1.25.46,1.25,1.41v2.59h-.67V67.73a.93.93,0,0,0-.19-.62.75.75,0,0,0-.6-.21,1,1,0,0,0-.57.18,1.31,1.31,0,0,0-.4.47v2.79H91V66.42h.65Zm5,3.44a1,1,0,0,0,.62-.21.72.72,0,0,0,.3-.55h.63a1.35,1.35,0,0,1-.81,1.13,1.7,1.7,0,0,1-.76.18,1.61,1.61,0,0,1-1.27-.53,2.06,2.06,0,0,1-.46-1.45v-.12a2.21,2.21,0,0,1,.21-1,1.44,1.44,0,0,1,.6-.69,1.73,1.73,0,0,1,.92-.26,1.54,1.54,0,0,1,1.08.4,1.34,1.34,0,0,1,.46,1h-.62a.92.92,0,0,0-.28-.62,1,1,0,0,0-1.43.11,1.74,1.74,0,0,0-.27,1.06v.12a1.66,1.66,0,0,0,.27,1A.92.92,0,0,0,96.67,69.83ZM99,65.35a.33.33,0,0,1,.09-.27.44.44,0,0,1,.6,0,.47.47,0,0,1,0,.55.46.46,0,0,1-.6,0A.37.37,0,0,1,99,65.35Zm.71,5H99V66.39h.66Zm4.2-.7a1.61,1.61,0,0,1-1.47.76,1.65,1.65,0,0,1-1.29-.53,2,2,0,0,1-.51-1.4v-.12a2.2,2.2,0,0,1,.23-1,1.58,1.58,0,0,1,.62-.71,1.71,1.71,0,0,1,.88-.26,1.53,1.53,0,0,1,1.2.51,2.15,2.15,0,0,1,.41,1.43v.28h-2.65a1.3,1.3,0,0,0,.35.94,1,1,0,0,0,.83.35,1.15,1.15,0,0,0,.6-.14,2,2,0,0,0,.44-.39l.36.32Zm-1.56-2.74a.89.89,0,0,0-.7.3,1.4,1.4,0,0,0-.34.83h2V68a1.24,1.24,0,0,0-.28-.78.71.71,0,0,0-.64-.3Zm4.29.11a1.22,1.22,0,0,0-.33,0,.9.9,0,0,0-.9.55v2.8h-.69V66.39h.65v.46a1.09,1.09,0,0,1,.94-.53.94.94,0,0,1,.3.05V67Zm2.88,3.33a1.06,1.06,0,0,1-.09-.42,1.51,1.51,0,0,1-1.11.48,1.4,1.4,0,0,1-.94-.32,1,1,0,0,1-.37-.83,1.12,1.12,0,0,1,.46-1,2.17,2.17,0,0,1,1.31-.34h.65v-.3a.77.77,0,0,0-.21-.56.82.82,0,0,0-.62-.2,1,1,0,0,0-.6.18.53.53,0,0,0-.25.44h-.67a1,1,0,0,1,.2-.58,1.5,1.5,0,0,1,.56-.44,1.88,1.88,0,0,1,.78-.16,1.5,1.5,0,0,1,1.06.35,1.19,1.19,0,0,1,.4.92v1.8a2.12,2.12,0,0,0,.13.86v.07Zm-1.11-.51a1.12,1.12,0,0,0,.6-.16,1.21,1.21,0,0,0,.42-.42v-.81h-.53c-.83,0-1.22.23-1.22.72a.59.59,0,0,0,.2.48.75.75,0,0,0,.53.19Z"/></g><g id="Grupo_1268" data-name="Grupo 1268"><path id="Trazado_545" data-name="Trazado 545" class="cls-2" d="M179.45,26.22c-.46-.54-.93-1.07-1.39-1.57a2.43,2.43,0,0,0-.44-.47,1,1,0,0,0-.5-.16c-.7,0-1.36,0-2.06,0a14.15,14.15,0,0,1-1.45-.11,11.49,11.49,0,0,1-2.89-.69,4.6,4.6,0,0,1-1.5-.93h9.37a.48.48,0,0,0,.51-.3.41.41,0,0,0-.14-.55,3.17,3.17,0,0,1-1.15-2.1,4.49,4.49,0,0,1,1.13-3.74,4.15,4.15,0,0,1,1.57-1.18c.41-.18.37-.5.39-.8,0-.58,0-1.18.07-1.78a1,1,0,0,0-.32-.79c-.67-.8-1.34-1.61-2-2.42a4.37,4.37,0,0,1-.6-1,1.79,1.79,0,0,1,.3-1.57c.14-.23.33-.46.49-.69A19.09,19.09,0,0,0,181,8.7c.44.53.9,1,1.38,1.52a13.18,13.18,0,0,0,1.07,1A3,3,0,0,1,184.64,14a8.54,8.54,0,0,1-.46,1.6,13.41,13.41,0,0,0-.56,1.87,4.81,4.81,0,0,0,.14,2A15,15,0,0,0,185,22l.78,1.41v.16c-.09.05-.18.07-.28.12l-2.83,1.59c-.6.32-1.18.67-1.76,1h-1.45Z"/><path id="Trazado_546" data-name="Trazado 546" class="cls-2" d="M163.92.07a12.46,12.46,0,0,1,1.17,1c.12.12,0,.42,0,.63v2a.1.1,0,0,1-.1.1H165a7.68,7.68,0,0,1-1.64-1.63,7.25,7.25,0,0,1-.48-.86A.85.85,0,0,1,163.92.07"/><path id="Trazado_547" data-name="Trazado 547" class="cls-2" d="M171.74,9.37a1.37,1.37,0,0,0-.55-1,.55.55,0,0,0-.74,0,1.48,1.48,0,0,0-.26,2c.28.39.77.53,1,.26a1.61,1.61,0,0,0,.51-1.25m4.2.16a1.46,1.46,0,0,0-.62-1.2.6.6,0,0,0-.67,0,1.47,1.47,0,0,0-.25,2.05,1.88,1.88,0,0,0,.25.24.55.55,0,0,0,.67,0,1.43,1.43,0,0,0,.62-1.13m-5.54,2.29a.57.57,0,0,0-.53.3.49.49,0,0,0,.09.57,3.84,3.84,0,0,0,1.25.9,4.24,4.24,0,0,0,2.51.26,3.39,3.39,0,0,0,2.22-1.39.52.52,0,0,0-.14-.67.57.57,0,0,0-.74.12,2.73,2.73,0,0,1-.32.37,2.89,2.89,0,0,1-2.52.57,3,3,0,0,1-1.5-.87,2.35,2.35,0,0,0-.32-.16M168,3.48h9.83c0,.51,0,1,0,1.53,0,.18-.21.37-.32.55a2.71,2.71,0,0,0,0,3.12,1.84,1.84,0,0,1,.37,1.2c0,1.68,0,3.34,0,5a.86.86,0,0,1-.14.46,6,6,0,0,0-.88,2.35c0,.1,0,.21-.07.33H168v-.33c0-.62,0-1.24,0-1.87a1.4,1.4,0,0,1,.37-1.13,1.64,1.64,0,0,0-.19-2.28.61.61,0,0,1-.16-.6c0-.05.05-.07.09-.09a1.87,1.87,0,0,0,1.07-1.46,1.46,1.46,0,0,0-.56-1.36A1.56,1.56,0,0,1,168,7.48c0-1.23,0-2.45,0-3.67V3.48Z"/><path id="Trazado_548" data-name="Trazado 548" class="cls-2" d="M171.12,1c-.33,0-.44.11-.44.41a.43.43,0,0,0,.45.4h0a.41.41,0,0,0,.44-.37v0c0-.3-.14-.41-.46-.41m2.74.88h1.23a.65.65,0,0,0,.2-.05.5.5,0,0,0,.4-.48.53.53,0,0,0-.49-.47h-2.68a.49.49,0,0,0-.48.47c0,.3.14.5.62.53s.81,0,1.2,0m-6.92,5.47c-.25-.12-.48-.24-.72-.33V1.71A1.52,1.52,0,0,1,167.84.18H178a1.52,1.52,0,0,1,1.62,1.5c0,1,0,1.9,0,2.84-.24-.07-.44-.14-.72-.2,0-.37,0-.79,0-1.23a.59.59,0,0,0-.57-.62h-.08c-3.55,0-7.1,0-10.68,0-.46,0-.65.16-.65.62,0,1.41,0,2.82,0,4.23"/><path id="Trazado_549" data-name="Trazado 549" class="cls-2" d="M172.94,20.72a.61.61,0,0,0,.65-.53c0-.34-.26-.55-.67-.55a.58.58,0,0,0-.63.53h0a.61.61,0,0,0,.62.56h0M176.77,19a5,5,0,0,0,.76,2.31h-9.62a1.54,1.54,0,0,1-1.71-1.6v-.92c0-.14,0-.21.19-.23a2.91,2.91,0,0,0,.5-.16c.07.55.33.6.74.6Z"/><path id="Trazado_550" data-name="Trazado 550" class="cls-2" d="M164.59,8.84c0-.51.3-.74.71-.9a.86.86,0,0,1,1,.21c.53.46,1,1,1.55,1.43a.82.82,0,0,1-.51,1.38,1.09,1.09,0,0,1-1.06-.28c-.46-.41-.95-.83-1.41-1.26a.66.66,0,0,1-.25-.58"/><path id="Trazado_551" data-name="Trazado 551" class="cls-2" d="M165.86,17.75a1.46,1.46,0,0,1-1-.42A18.94,18.94,0,0,1,163.5,16c-.51-.6-.07-1.18.58-1.39a1.09,1.09,0,0,1,1.08.35c.49.44.93.88,1.41,1.32a.79.79,0,0,1-.3,1.33,1.89,1.89,0,0,0-.41.1"/><path id="Trazado_552" data-name="Trazado 552" class="cls-2" d="M167.72,13.64a1,1,0,0,1-1.43.85,5.66,5.66,0,0,1-2.07-1.91c-.21-.28,0-.76.37-.95a1.14,1.14,0,0,1,1.45.21c.48.41,1,.85,1.41,1.31a3.36,3.36,0,0,1,.27.49"/><path id="Trazado_553" data-name="Trazado 553" class="cls-2" d="M178.92,10.48a10.39,10.39,0,0,0,.74.9,1.08,1.08,0,0,1,.3.92l-.07,1.11a.35.35,0,0,1-.1.21c-.27.18-.57.36-.9.55V10.48Z"/><g id="SIMPLICIDAD" class="cls-3"><text class="cls-4" transform="translate(144.86 41.99)">SIMPLICI<tspan class="cls-10" x="41.98" y="0">D</tspan><tspan class="cls-11" x="48.36" y="0">AD</tspan></text></g><g id="y_facilidad_de_uso" data-name="y facilidad de uso" class="cls-3"><text class="cls-6" transform="translate(145.3 51.67)">y facilidad de uso</text></g></g><g id="Grupo_1270" data-name="Grupo 1270"><g id="Grupo_1266" data-name="Grupo 1266"><g class="cls-12"><g id="Grupo_1264" data-name="Grupo 1264"><path id="Trazado_542" data-name="Trazado 542" class="cls-2" d="M29.29,12.3a2.74,2.74,0,1,1,0-3.88,2.78,2.78,0,0,1,0,3.88m5.05-9.44A20.33,20.33,0,0,0,19.66,9.62a13.94,13.94,0,0,0-9.53,4,.58.58,0,0,0-.14.56.52.52,0,0,0,.44.36l4.23.6-.53.6a.51.51,0,0,0,0,.73h0L19,21.39a8.74,8.74,0,0,1,8.72-8.12,8.58,8.58,0,0,1,3.76.85,19.48,19.48,0,0,0,3.35-10.7.51.51,0,0,0-.44-.56h-.07"/></g></g><g class="cls-12"><g id="Grupo_1265" data-name="Grupo 1265"><path id="Trazado_543" data-name="Trazado 543" class="cls-2" d="M11.59,21.35c-1.18,1.17-2.77,6.46-3,7.06a.58.58,0,0,0,.14.55.54.54,0,0,0,.39.16.33.33,0,0,0,.17,0c.6-.18,5.88-1.78,7.06-3a3.39,3.39,0,0,0-4.8-4.8"/></g></g></g><path id="Trazado_544" data-name="Trazado 544" class="cls-2" d="M30.83,20.65l-3.55,3.83a.79.79,0,0,1-.6.26.78.78,0,0,1-.53-.21l-1.92-1.64a.82.82,0,0,1-.08-1.15.81.81,0,0,1,1.14-.09l1.32,1.13,3-3.26a.84.84,0,0,1,1.16,0,.85.85,0,0,1,0,1.17m-3.07-5.77A7.11,7.11,0,1,0,34.87,22a7.11,7.11,0,0,0-7.11-7.11"/><g id="RÁPIDEZ" class="cls-3"><text class="cls-4" transform="translate(0.43 41.93)">RÁPIDEZ</text></g><g id="en_las" data-name="en las" class="cls-3"><text class="cls-6" transform="translate(11.78 53.06)">en las</text></g><g id="transferecias" class="cls-3"><text class="cls-6" transform="translate(0 61.96)">t<tspan class="cls-13" x="2.42" y="0">r</tspan><tspan x="4.79" y="0">ans</tspan><tspan class="cls-14" x="16.74" y="0">f</tspan><tspan x="19.23" y="0">e</tspan><tspan class="cls-7" x="23.16" y="0">r</tspan><tspan x="25.6" y="0">ecias</tspan></text></g></g></g></g></svg>