<svg xmlns="http://www.w3.org/2000/svg" xmlns:xlink="http://www.w3.org/1999/xlink" viewBox="0 0 213.98 31.66"><defs><style>.cls-1{fill:none;}.cls-2{clip-path:url(#clip-path);}.cls-3{fill:#12110c;}.cls-4,.cls-6,.cls-7,.cls-9{fill:#fff;}.cls-5,.cls-6,.cls-7,.cls-9{isolation:isolate;}.cls-6{font-size:12.09px;}.cls-6,.cls-7{font-family:Montserrat-SemiBold, Montserrat;font-weight:600;}.cls-7{font-size:11.51px;}.cls-8{letter-spacing:-0.01em;}.cls-9{font-size:6.91px;font-family:Roboto-Bold, Roboto;font-weight:700;}</style><clipPath id="clip-path"><rect class="cls-1" width="213.98" height="31.66"/></clipPath></defs><title>Recurso 7</title><g id="Capa_2" data-name="Capa 2"><g id="Capa_1-2" data-name="Capa 1"><g id="Grupo_1137" data-name="Grupo 1137"><g class="cls-2"><g id="Grupo_1134" data-name="Grupo 1134"><path id="Trazado_404" data-name="Trazado 404" class="cls-3" d="M100.11,31.66H4.05a4,4,0,0,1-4-4V4.05A4,4,0,0,1,4.05,0h96.06a4,4,0,0,1,4,4.05V27.66a4.08,4.08,0,0,1-4,4"/></g></g><g class="cls-2"><g id="Grupo_1135" data-name="Grupo 1135"><path id="Trazado_405" data-name="Trazado 405" class="cls-4" d="M6.49,12.92C4.78,15.83,5.86,20.29,7.73,23c.94,1.35,1.87,2.54,3.17,2.54h0a3,3,0,0,0,1.45-.41,4.18,4.18,0,0,1,1.77-.42,3.68,3.68,0,0,1,1.66.42,2.91,2.91,0,0,0,1.61.36c1.45-.05,2.34-1.35,3.11-2.49A12.26,12.26,0,0,0,22,20.19h0c.05-.1,0-.16-.11-.21h0a4.21,4.21,0,0,1-2.54-3.84,4.34,4.34,0,0,1,2-3.58h0c.05,0,.05-.05.05-.1v-.11a4.91,4.91,0,0,0-3.73-2h-.32A6.75,6.75,0,0,0,15,10.9a4.1,4.1,0,0,1-1.14.31,3.23,3.23,0,0,1-1.14-.36,5.35,5.35,0,0,0-2-.52h0a5.26,5.26,0,0,0-4.15,2.59"/></g></g><g class="cls-2"><g id="Grupo_1136" data-name="Grupo 1136"><path id="Trazado_406" data-name="Trazado 406" class="cls-4" d="M17.7,5.61a4.46,4.46,0,0,0-3,1.55,4.28,4.28,0,0,0-1.09,3.17.16.16,0,0,0,.16.15H14A4.07,4.07,0,0,0,16.82,9a4.33,4.33,0,0,0,1-3.27.16.16,0,0,0-.15-.16"/></g></g></g><g id="App_St" data-name="App St" class="cls-5"><text class="cls-6" transform="translate(28.19 22.93)">App St</text></g><g id="or" class="cls-5"><text class="cls-7" transform="translate(69.65 22.36)">or</text></g><g id="e" class="cls-5"><text class="cls-7" transform="translate(82.4 22.36)">e</text></g><g id="Grupo_1139" data-name="Grupo 1139"><g class="cls-2"><g id="Grupo_1138" data-name="Grupo 1138"><path id="Trazado_407" data-name="Trazado 407" class="cls-3" d="M209.93,31.66H113.87a4,4,0,0,1-4.05-4.05V4.05a4,4,0,0,1,4.05-4h96.06a4,4,0,0,1,4,4.05V27.66a4,4,0,0,1-4,4"/></g></g></g><g id="Google_Play" data-name="Google Play" class="cls-5"><text class="cls-7" transform="translate(137.23 22.88)">Google Pl<tspan class="cls-8" x="57.08" y="0">a</tspan><tspan x="63.95" y="0">y</tspan></text></g><g id="Grupo_1141" data-name="Grupo 1141"><g class="cls-2"><g id="Grupo_1140" data-name="Grupo 1140"><path id="Trazado_408" data-name="Trazado 408" class="cls-4" d="M134.89,15.41l-3.95-2.28-3.27,3.17,3,2.9,4.26-2.44a.67.67,0,0,0,.36-.62.87.87,0,0,0-.36-.73"/></g></g></g><path id="Trazado_409" data-name="Trazado 409" class="cls-4" d="M130.27,12.77l-4.36-2.55-9.55-4.87,10.79,10.43Z"/><path id="Trazado_410" data-name="Trazado 410" class="cls-4" d="M116.52,27.09l9.39-5.19,4.1-2.33-2.86-2.75Z"/><path id="Trazado_411" data-name="Trazado 411" class="cls-4" d="M115.68,5.76V26.83l10.9-10.53Z"/><g id="Disponible_en" data-name="Disponible en" class="cls-5"><text class="cls-9" transform="translate(29.06 11.03)">Disponible en</text></g><g id="Disponible_en-2" data-name="Disponible en-2" class="cls-5"><text class="cls-9" transform="translate(138.57 11.03)">Disponible en</text></g></g></g></svg>