<svg xmlns="http://www.w3.org/2000/svg" viewBox="0 0 115.88 115.15"><defs><style>.cls-1{fill:#fff;}.cls-2,.cls-5{fill:#1a4e99;}.cls-3,.cls-4,.cls-5{isolation:isolate;}.cls-4,.cls-5{font-size:14.39px;font-family:Neufreit-ExtraBold, Neufreit;font-weight:800;}.cls-4{fill:#e9893c;}</style></defs><title>Recurso 6</title><g id="Capa_2" data-name="Capa 2"><g id="Capa_1-2" data-name="Capa 1"><rect id="Rectángulo_2212" data-name="Rectángulo 2212" class="cls-1" width="115.88" height="115.15"/><g id="Grupo_1132" data-name="Grupo 1132"><path id="Trazado_397" data-name="Trazado 397" class="cls-2" d="M25.9,61.05s-.43,1,1.13.05c11.61-7.15,18.76-13,36-13.17,9.62-.1,16.4,2.69,32.9,12.42,1.24.7,1.4.11,1.4.11-3.77-5.59-13.66-20.64-35.7-20.64C35.14,39.81,25.9,61.05,25.9,61.05Z"/><path id="Trazado_398" data-name="Trazado 398" class="cls-2" d="M61.65,45.94a12.15,12.15,0,0,0-7.26,2.37,3.35,3.35,0,0,1,2.8,3.12,3.5,3.5,0,0,1-3.71,3.22,4,4,0,0,1-2.75-1,8.27,8.27,0,0,0-.26,2c0,5.38,5,9.73,11.12,9.73s11.13-4.35,11.13-9.73S67.83,45.94,61.65,45.94Z"/><path id="Trazado_399" data-name="Trazado 399" class="cls-2" d="M62.67,37.23h0a1.56,1.56,0,0,1-1.56-1.56V30a1.56,1.56,0,0,1,1.56-1.56h0A1.56,1.56,0,0,1,64.23,30v5.64a1.52,1.52,0,0,1-1.41,1.61A.75.75,0,0,1,62.67,37.23Z"/><path id="Trazado_400" data-name="Trazado 400" class="cls-2" d="M73.42,38.79h0a1.63,1.63,0,0,1-.7-2.15l2.58-5.05a1.64,1.64,0,0,1,2.15-.7h0a1.64,1.64,0,0,1,.7,2.15l-2.58,5.05a1.56,1.56,0,0,1-2.08.74Z"/><path id="Trazado_401" data-name="Trazado 401" class="cls-2" d="M81.54,42h0a1.6,1.6,0,0,1,.16-2.25L86,36a1.61,1.61,0,0,1,2.26.16h0a1.61,1.61,0,0,1-.17,2.26l-4.3,3.71A1.66,1.66,0,0,1,81.54,42Z"/><path id="Trazado_402" data-name="Trazado 402" class="cls-2" d="M52.72,38h0a1.64,1.64,0,0,0,.7-2.15l-2.58-5.05a1.63,1.63,0,0,0-2.15-.7h0a1.63,1.63,0,0,0-.7,2.15l2.58,5.05A1.64,1.64,0,0,0,52.72,38Z"/><path id="Trazado_403" data-name="Trazado 403" class="cls-2" d="M44.61,41.16h0a1.61,1.61,0,0,0-.17-2.26l-4.3-3.71a1.61,1.61,0,0,0-2.25.16h0a1.6,1.6,0,0,0,.16,2.26l4.3,3.71A1.66,1.66,0,0,0,44.61,41.16Z"/><g id="MoneyBlink_" data-name="MoneyBlink " class="cls-3"><text class="cls-4" transform="translate(14.39 76.9)">M</text><text class="cls-5" transform="translate(27.49 76.9)">oney</text><text class="cls-4" transform="translate(59.47 76.9)">B</text><text class="cls-5" transform="translate(68.23 76.9)">link</text><text class="cls-4" transform="translate(93.58 76.9)">$</text></g></g></g></g></svg>