<svg xmlns="http://www.w3.org/2000/svg" viewBox="0 0 170.65 45.09"><defs><style>.cls-1{fill:#0077b7;}.cls-2{fill:#f1f2f2;}.cls-3{fill:#3c9cd6;}.cls-4{fill:#3c80c2;}</style></defs><title>Recurso 8</title><g id="Capa_2" data-name="Capa 2"><g id="Capa_1-2" data-name="Capa 1"><g id="Grupo_1200" data-name="Grupo 1200"><circle id="Elipse_47" data-name="Elipse 47" class="cls-1" cx="21.06" cy="24.03" r="21.06"/><g id="Grupo_1199" data-name="Grupo 1199"><path id="Trazado_539" data-name="Trazado 539" class="cls-2" d="M33.16,25.54V33.8H28.4V26.08c0-1.92-.69-3.27-2.42-3.27a2.6,2.6,0,0,0-2.46,1.77,3.81,3.81,0,0,0-.15,1.16V33.8H18.53s.07-13.07,0-14.45h4.8v2l0,0h0v0A4.72,4.72,0,0,1,27.67,19c3.15,0,5.5,2.07,5.5,6.53ZM13.49,12.4a2.5,2.5,0,1,0-.07,5h0a2.51,2.51,0,0,0,.39-5ZM11.07,33.8h4.8V19.36h-4.8Z"/></g></g><g id="Grupo_1202" data-name="Grupo 1202"><path id="Trazado_540" data-name="Trazado 540" class="cls-3" d="M65.88,21.25A21.06,21.06,0,1,1,86.94,42.31h0a21,21,0,0,1-21.06-21Z"/><g id="Grupo_1201" data-name="Grupo 1201"><path id="Trazado_541" data-name="Trazado 541" class="cls-2" d="M100,13.18a10.22,10.22,0,0,1-3.07.84,5.16,5.16,0,0,0,2.34-3,11.69,11.69,0,0,1-3.38,1.31A5.33,5.33,0,0,0,86.63,16v0a4.23,4.23,0,0,0,.15,1.23,15.12,15.12,0,0,1-11-5.57,5.3,5.3,0,0,0-.73,2.69,5.42,5.42,0,0,0,2.38,4.46A5.72,5.72,0,0,1,75,18.17v.08a5.37,5.37,0,0,0,4.27,5.23,5.79,5.79,0,0,1-1.43.19,8.55,8.55,0,0,1-1-.07,5.34,5.34,0,0,0,5,3.68,10.69,10.69,0,0,1-6.61,2.27c-.42,0-.84,0-1.26-.08a15.19,15.19,0,0,0,23.36-12.8V16A12,12,0,0,0,100,13.18Z"/></g></g><g id="Grupo_1263" data-name="Grupo 1263"><circle id="Elipse_44" data-name="Elipse 44" class="cls-4" cx="149.58" cy="21.07" r="21.07"/><path id="Trazado_536" data-name="Trazado 536" class="cls-2" d="M159.16,24.8h-4.65V41.57a22.47,22.47,0,0,1-3.17.49,25.8,25.8,0,0,1-3.73,0V24.8H141.9V18.88h5.71v-3.8c0-2.75,1.27-7,7-7h5.15v5.7H156a1.37,1.37,0,0,0-1.47,1.26s0,.06,0,.08v3.73h5.29Z"/></g></g></g></svg>