<svg xmlns="http://www.w3.org/2000/svg" viewBox="0 0 45.33 56.72"><defs><style>.cls-1{fill:#194e99;}</style></defs><title>Seguridad</title><g id="Capa_2" data-name="Capa 2"><g id="Capa_1-2" data-name="Capa 1"><path id="Trazado_554" data-name="Trazado 554" class="cls-1" d="M38.6,26.2A25,25,0,0,1,23.22,49.36a1.51,1.51,0,0,1-1.28,0A25,25,0,0,1,6.65,26.2V14.91A1.59,1.59,0,0,1,7.8,13.34,19.51,19.51,0,0,0,16.74,7.2,1.62,1.62,0,0,1,18,6.6h9.29a2.16,2.16,0,0,1,1.28.6,19.22,19.22,0,0,0,9,6.14,1.71,1.71,0,0,1,1,1h0a1.93,1.93,0,0,0,0,.34V26.2Zm5-18.49A12.79,12.79,0,0,1,32.21.89,1.65,1.65,0,0,0,30.83,0H14.51A1.69,1.69,0,0,0,13,.89,12.79,12.79,0,0,1,1.66,7.71,1.65,1.65,0,0,0,0,9.33V26.4A31.33,31.33,0,0,0,6.14,45.12a32,32,0,0,0,16,11.51,1.38,1.38,0,0,0,1,0A31.77,31.77,0,0,0,45.33,26.4V9.4a1.76,1.76,0,0,0-1.68-1.69M31.55,24.24,21.24,34.55a1.65,1.65,0,0,1-2.34,0h0L13.72,29.4a1.66,1.66,0,0,1,0-2.35v0a1.71,1.71,0,0,1,2.36,0l4,4,9.16-9.14a1.63,1.63,0,0,1,2.32,0l0,0a1.67,1.67,0,0,1,0,2.35h0M26.5,9.93H18.73a22.77,22.77,0,0,1-8.84,6.2V26.25A21.68,21.68,0,0,0,22.67,46.06,21.68,21.68,0,0,0,35.45,26.25V16.13a22.7,22.7,0,0,1-8.84-6.2"/></g></g></svg>