<svg xmlns="http://www.w3.org/2000/svg" viewBox="0 0 48.02 54.79"><defs><style>.cls-1{fill:#194e99;}</style></defs><title>Simple de usar</title><g id="Capa_2" data-name="Capa 2"><g id="Capa_1-2" data-name="Capa 1"><path id="Trazado_545" data-name="Trazado 545" class="cls-1" d="M34.83,54.66c-1-1.13-1.94-2.23-2.9-3.27a4.76,4.76,0,0,0-.92-1,2,2,0,0,0-1-.34h-4.3a27.71,27.71,0,0,1-3-.23,23.58,23.58,0,0,1-6-1.44,9.48,9.48,0,0,1-3.13-1.93H33a1,1,0,0,0,1.07-.63.87.87,0,0,0-.3-1.15,6.57,6.57,0,0,1-2.39-4.38,9.37,9.37,0,0,1,2.35-7.8A8.66,8.66,0,0,1,37,30.05c.85-.37.77-1,.81-1.66A33.49,33.49,0,0,1,38,24.67,2.07,2.07,0,0,0,37.33,23c-1.4-1.67-2.8-3.36-4.17-5.05a9.2,9.2,0,0,1-1.25-2.08,3.74,3.74,0,0,1,.62-3.28c.29-.48.69-1,1-1.44a40.15,40.15,0,0,0,4.51,7c.91,1.1,1.87,2.08,2.88,3.17a25.88,25.88,0,0,0,2.23,2.08,6.26,6.26,0,0,1,2.48,5.8,17.39,17.39,0,0,1-1,3.33,28.18,28.18,0,0,0-1.17,3.9,10,10,0,0,0,.29,4.17,31.13,31.13,0,0,0,2.59,5.28L48,48.8v.33a6.31,6.31,0,0,1-.58.25l-5.9,3.32c-1.25.67-2.46,1.4-3.67,2.09h-3Z"/><path id="Trazado_546" data-name="Trazado 546" class="cls-1" d="M2.44.13A25.61,25.61,0,0,1,4.88,2.22c.25.25,0,.87,0,1.31V7.7a.21.21,0,0,1-.21.21h0a16.21,16.21,0,0,1-3.42-3.4,16.41,16.41,0,0,1-1-1.79A1.78,1.78,0,0,1,.83.27,1.8,1.8,0,0,1,2.44.13"/><path id="Trazado_547" data-name="Trazado 547" class="cls-1" d="M18.75,19.52a2.83,2.83,0,0,0-1.15-2.08,1.14,1.14,0,0,0-1.54,0,3.07,3.07,0,0,0-.54,4.17c.58.81,1.6,1.1,2.08.54a3.33,3.33,0,0,0,1.06-2.61m8.76.34a3,3,0,0,0-1.29-2.5,1.24,1.24,0,0,0-1.4,0,3.07,3.07,0,0,0-.52,4.27,4.1,4.1,0,0,0,.52.5,1.14,1.14,0,0,0,1.4,0,3,3,0,0,0,1.29-2.36M15.87,24.57a1.17,1.17,0,0,0-1.1.63A1,1,0,0,0,15,26.38a8,8,0,0,0,2.61,1.88,8.77,8.77,0,0,0,5.23.54,7,7,0,0,0,4.63-2.9,1.07,1.07,0,0,0-.29-1.39,1.18,1.18,0,0,0-1.54.25,6.06,6.06,0,0,1-.67.77,6,6,0,0,1-5.25,1.19,6.3,6.3,0,0,1-3.13-1.82,5.94,5.94,0,0,0-.67-.33M11,7.24h20.5v3.19c0,.38-.44.77-.67,1.15a5.65,5.65,0,0,0,0,6.5,3.84,3.84,0,0,1,.77,2.51V31a1.72,1.72,0,0,1-.29,1,12.58,12.58,0,0,0-1.84,4.9,1.3,1.3,0,0,1-.14.69H11V33a2.9,2.9,0,0,1,.77-2.35,3.42,3.42,0,0,0-.4-4.76A1.28,1.28,0,0,1,11,24.61c0-.1.11-.14.19-.19a3.88,3.88,0,0,0,2.23-3,3.06,3.06,0,0,0-1.17-2.84,3.24,3.24,0,0,1-1.29-3V7.24Z"/><path id="Trazado_548" data-name="Trazado 548" class="cls-1" d="M17.46,2.07c-.69,0-.92.23-.92.86a.9.9,0,0,0,.94.83h0A.85.85,0,0,0,18.39,3h0c0-.63-.29-.86-1-.86M23.15,4h2.56a1.19,1.19,0,0,0,.42-.11,1,1,0,0,0,.83-1,1.11,1.11,0,0,0-1-1H20.35a1,1,0,0,0-1,1c0,.63.29,1.05,1.3,1.11s1.68,0,2.5,0M8.72,15.37a16.29,16.29,0,0,0-1.5-.68V3.55A3.17,3.17,0,0,1,10.36.35H31.8a3.17,3.17,0,0,1,3.37,3,1.09,1.09,0,0,1,0,.18V9.41c-.5-.15-.92-.29-1.5-.42V6.43a1.23,1.23,0,0,0-1.17-1.29H10.05c-1,0-1.35.33-1.35,1.29v8.82"/><path id="Trazado_549" data-name="Trazado 549" class="cls-1" d="M21.25,43.19a1.28,1.28,0,0,0,1.36-1.1c0-.71-.55-1.15-1.4-1.15A1.2,1.2,0,0,0,19.9,42h0a1.28,1.28,0,0,0,1.3,1.17h0m8-3.61a10.32,10.32,0,0,0,1.58,4.82H10.76a3.21,3.21,0,0,1-3.55-2.83,2.8,2.8,0,0,1,0-.5V39.17c0-.3,0-.44.39-.48a5.27,5.27,0,0,0,1-.34c.15,1.15.69,1.25,1.55,1.25Z"/><path id="Trazado_550" data-name="Trazado 550" class="cls-1" d="M3.84,18.42a1.91,1.91,0,0,1,1.48-1.88A1.78,1.78,0,0,1,7.4,17c1.11,1,2.09,2.09,3.24,3a1.71,1.71,0,0,1-.07,2.42,1.69,1.69,0,0,1-1,.46,2.28,2.28,0,0,1-2.21-.58c-1-.86-2-1.74-2.94-2.63a1.39,1.39,0,0,1-.52-1.21"/><path id="Trazado_551" data-name="Trazado 551" class="cls-1" d="M6.49,37a3.08,3.08,0,0,1-2.09-.88,37,37,0,0,1-2.83-2.77c-1.07-1.25-.15-2.46,1.2-2.9A2.28,2.28,0,0,1,5,31.18C6.05,32.1,7,33,8,33.93a1.65,1.65,0,0,1,.08,2.33,1.72,1.72,0,0,1-.71.45,3.51,3.51,0,0,0-.85.2"/><path id="Trazado_552" data-name="Trazado 552" class="cls-1" d="M10.37,28.43a2.09,2.09,0,0,1-2.2,2,2,2,0,0,1-.79-.2,11.76,11.76,0,0,1-4.31-4c-.44-.59,0-1.59.77-2a2.37,2.37,0,0,1,3,.43A30.72,30.72,0,0,1,9.8,27.41a6.34,6.34,0,0,1,.57,1"/><path id="Trazado_553" data-name="Trazado 553" class="cls-1" d="M33.72,21.84a23,23,0,0,0,1.54,1.88,2.25,2.25,0,0,1,.63,1.91L35.74,28a.7.7,0,0,1-.21.44c-.56.37-1.18.75-1.87,1.14V21.84Z"/></g></g></svg>