<?xml version="1.0" encoding="utf-8"?>
<!-- Generator: Adobe Illustrator 27.4.0, SVG Export Plug-In . SVG Version: 6.00 Build 0)  -->
<svg version="1.1" id="Layer_1" xmlns="http://www.w3.org/2000/svg" xmlns:xlink="http://www.w3.org/1999/xlink" x="0px" y="0px"
	 viewBox="0 0 841.89 595.28" style="enable-background:new 0 0 841.89 595.28;" xml:space="preserve">
<style type="text/css">
	.st0{fill:#941A28;}
	.st1{fill:#711624;}
	.st2{fill:#ED1C24;}
	.st3{fill:#FFFFFF;}
	.st4{fill:#5B5C5C;}
</style>
<path class="st0" d="M349.92,211.16c-6.54-12.46-17.54-21.62-30.97-25.8c-11.29-3.51-22.99-3.2-33.95,0.89
	c-6.7-9.59-16.16-16.5-27.44-20.01c-13.43-4.18-27.69-2.89-40.15,3.65c-25.71,13.5-35.64,45.4-22.15,71.11l42.28,80.53
	c0.89,1.7,2.4,2.95,4.23,3.52c1.83,0.57,3.78,0.39,5.48-0.5l80.52-42.28C353.49,268.77,363.42,236.87,349.92,211.16z"/>
<path class="st1" d="M252.51,321.69l39.48-77.85c9.82-19.36,6.41-42.1-6.85-57.75c-0.05,0.02-0.09,0.03-0.14,0.05
	c-0.3-0.42-0.6-0.84-0.91-1.25c-4.13-4.58-9.13-8.5-14.91-11.47c-12.4-6.38-26.52-7.53-39.75-3.24
	c-11.12,3.6-20.38,10.55-26.89,20.15c-1.78-0.65-3.59-1.19-5.41-1.63c-9.46,15.33-10.83,35.13-1.87,52.2l42.28,80.53
	c0.89,1.7,2.4,2.95,4.23,3.52c1.83,0.57,3.78,0.39,5.48-0.5L252.51,321.69z"/>
<path class="st2" d="M265.91,169.5c-12.53-6.4-26.8-7.53-40.18-3.2c-11.25,3.64-20.63,10.65-27.22,20.32
	c-11.01-3.97-22.72-4.15-33.96-0.5c-13.38,4.34-24.28,13.62-30.68,26.15c-13.2,25.86-2.91,57.65,22.95,70.85l81,41.36
	c1.71,0.87,3.66,1.03,5.49,0.44c1.83-0.59,3.31-1.86,4.19-3.57l41.36-81C302.07,214.49,291.78,182.71,265.91,169.5z"/>
<g>
	<path class="st3" d="M239.32,254.83c0-0.86-0.55-1.64-1.38-1.88c-6.69-1.94-10.07-7.6-10.07-15.54v-2.5c0-1.06,0.86-1.92,1.92-1.92
		h6.16c1.06,0,1.92,0.86,1.92,1.92v3.18c0,4.14,2.12,5.87,5.49,5.87c3.37,0,5.49-1.73,5.49-6.06c0-4.81-1.92-8.28-9.05-13.86
		c-8.66-6.83-11.65-12.22-11.65-19.54c0-7.67,3.3-13.22,9.82-15.24c0.81-0.25,1.35-1.02,1.35-1.87v-2.43c0-1.06,0.86-1.92,1.92-1.92
		h4.81c1.06,0,1.92,0.86,1.92,1.92v2.42c0,0.85,0.55,1.62,1.36,1.86c6.61,1.93,9.99,7.51,9.99,15.45l0,0c0,1.06-0.86,1.92-1.92,1.92
		h-6.16c-1.06,0-1.92-0.86-1.92-1.92v-0.67c0-4.14-1.93-5.97-5.29-5.97c-3.37,0-5.29,1.83-5.29,5.77c0,4.43,1.92,7.8,9.05,13.47
		c8.66,6.93,11.65,12.22,11.65,19.92c0,8.12-3.47,13.79-10.09,15.73c-0.82,0.24-1.37,1.01-1.37,1.87v3.28
		c0,1.06-0.86,1.92-1.92,1.92h-4.81c-1.06,0-1.92-0.86-1.92-1.92V254.83z"/>
</g>
<g>
	<path class="st4" d="M272.23,432.31c-11.3,0-22.32-2.36-31.85-6.83c-11.07-5.19-19.61-13.06-24.05-22.18
		c-6.71-13.77-8.6-29.6-5.35-44.57c1.4-6.43,6.13-11.75,12.35-13.89c0.1-0.04,0.21-0.14,0.21-0.29v-55.57
		c0-10.84,8.82-19.66,19.66-19.66c10.84,0,19.66,8.82,19.66,19.66v27.15c0,0.19,0.16,0.31,0.3,0.31c0.02,0,0.04,0,0.07-0.01
		c1.46-0.31,2.82-0.46,4.16-0.46c2.54,0,4.94,0.54,7.53,1.71c3.74,1.68,6.89,4.58,8.86,8.17c0.06,0.12,0.18,0.16,0.27,0.16
		c0.04,0,0.07-0.01,0.11-0.02c2.12-0.79,4.35-1.19,6.61-1.19c2.69,0,5.3,0.56,7.76,1.66c3.75,1.68,6.9,4.59,8.87,8.19
		c0.06,0.12,0.18,0.16,0.27,0.16c0.04,0,0.07-0.01,0.1-0.02c2.09-0.76,4.27-1.15,6.5-1.15c2.69,0,5.3,0.56,7.75,1.66
		c5.01,2.25,8.8,6.55,10.39,11.81c5.59,18.48,4.15,38.27-4.06,55.75c-4.32,9.18-12.78,17.15-23.82,22.43
		c-9.57,4.57-20.65,7.01-32.06,7.04L272.23,432.31z"/>
	<path class="st3" d="M231.29,352.75c-5.69-1.01-11.08,2.92-11.85,8.64c-1.67,12.34-0.01,24.9,4.81,36.38
		c0.35,0.82,0.73,1.63,1.16,2.42c0.57,1.06,1.21,2.07,1.9,3.05c0.74,1.05,1.54,2.05,2.4,3.01c0.91,1.02,1.88,1.99,2.9,2.91
		c1.08,0.97,2.21,1.89,3.38,2.75c1.23,0.9,2.5,1.74,3.81,2.52c1.36,0.81,2.75,1.55,4.18,2.24c1.46,0.7,2.96,1.34,4.47,1.91
		c1.54,0.58,3.1,1.1,4.68,1.56c1.58,0.46,3.19,0.86,4.8,1.2c1.6,0.34,3.22,0.61,4.84,0.83c1.59,0.22,3.19,0.38,4.79,0.48
		c1.56,0.1,3.12,0.15,4.68,0.15s3.13-0.05,4.68-0.15c1.6-0.11,3.2-0.27,4.79-0.48c1.62-0.22,3.24-0.5,4.84-0.83
		c1.61-0.34,3.22-0.74,4.8-1.2c1.58-0.46,3.14-0.98,4.68-1.56c1.52-0.58,3.01-1.21,4.47-1.91c1.43-0.68,2.82-1.43,4.18-2.24
		c1.31-0.78,2.58-1.62,3.81-2.52c1.17-0.86,2.3-1.77,3.38-2.75c1.02-0.92,1.99-1.89,2.9-2.91c0.85-0.96,1.66-1.96,2.4-3.01
		c0.69-0.98,1.33-2,1.9-3.05c0.53-0.98,1-2,1.41-3.04c0.05-0.12,0.1-0.25,0.14-0.37c5.5-14.76,6.75-30.77,3.61-46.21
		c-0.98-4.8-5.24-8.22-10.13-8.14c-4.9,0.08-9.04,3.65-9.85,8.48c-0.12,0.71-0.74,1.23-1.46,1.23c-0.12,0-0.24,0-0.37,0
		c-0.82,0-1.48-0.66-1.48-1.48c0-2.3,0-4.61,0-6.91c0-5.34-4.13-9.77-9.46-10.14c-5.32-0.37-10.03,3.44-10.77,8.73
		c-0.1,0.73-0.73,1.27-1.46,1.27c-0.14,0-0.28,0-0.43,0c-0.82,0-1.48-0.66-1.48-1.48c0-2.38,0-4.77,0-7.15
		c0-5.79-4.82-10.41-10.6-10.16c-5.78,0.25-10.19,5.27-9.69,11.03c0.07,0.86-0.61,1.61-1.47,1.61c-0.24,0-0.48,0-0.72,0
		c-0.82,0-1.48-0.66-1.48-1.48c0-15.66,0-31.33,0-46.99c0-5.61-4.55-10.17-10.17-10.17c-5.61,0-10.17,4.55-10.17,10.17
		c0,20.77,0,41.54,0,62.32C233.03,352.22,232.2,352.91,231.29,352.75z"/>
</g>
<path class="st4" d="M414.6,243.04l10.28-68.12c0.14-0.93,0.94-1.62,1.88-1.62h21.62c1.05,0,1.9,0.85,1.9,1.9v111.28
	c0,1.05-0.85,1.9-1.9,1.9h-13.3c-1.05,0-1.9-0.85-1.9-1.9v-55.39c0-2.35-3.43-2.61-3.78-0.28l-8.47,55.96
	c-0.14,0.93-0.94,1.61-1.88,1.61H405.2c-0.93,0-1.72-0.67-1.87-1.59l-9.44-57.01c-0.38-2.3-3.77-2.02-3.77,0.31v56.39
	c0,1.05-0.85,1.9-1.9,1.9h-11.98c-1.05,0-1.9-0.85-1.9-1.9V175.21c0-1.05,0.85-1.9,1.9-1.9h21.64c0.93,0,1.72,0.67,1.87,1.59
	l11.11,68.17C411.2,245.2,414.28,245.18,414.6,243.04z"/>
<path class="st4" d="M461.94,200.93c0-18.41,9.7-28.93,27.45-28.93c17.76,0,27.46,10.52,27.46,28.93v59.84
	c0,18.41-9.7,28.94-27.46,28.94c-17.75,0-27.45-10.52-27.45-28.94V200.93z M480.02,261.92c0,8.22,3.62,11.34,9.37,11.34
	c5.76,0,9.37-3.12,9.37-11.34v-62.14c0-8.22-3.62-11.34-9.37-11.34c-5.75,0-9.37,3.12-9.37,11.34V261.92z"/>
<path class="st4" d="M544.63,219.2v67.3c0,1.04-0.84,1.88-1.88,1.88h-12.52c-1.04,0-1.88-0.84-1.88-1.88V175.19
	c0-1.04,0.84-1.88,1.88-1.88h19.37c0.85,0,1.59,0.57,1.82,1.39l14.51,53.79c0.57,2.12,3.7,1.71,3.7-0.49v-52.81
	c0-1.04,0.84-1.88,1.88-1.88h12.35c1.04,0,1.88,0.84,1.88,1.88V286.5c0,1.04-0.84,1.88-1.88,1.88h-15.26
	c-0.85,0-1.59-0.57-1.82-1.39l-18.45-68.28C547.75,216.59,544.63,217.01,544.63,219.2z"/>
<path class="st4" d="M618.68,221.8h21.04c1.04,0,1.89,0.85,1.89,1.89v12.66c0,1.04-0.85,1.89-1.89,1.89h-21.04
	c-1.04,0-1.89,0.85-1.89,1.89v29.92c0,1.04,0.85,1.89,1.89,1.89h27.45c1.04,0,1.89,0.85,1.89,1.89v12.66c0,1.04-0.85,1.89-1.89,1.89
	H600.6c-1.04,0-1.89-0.85-1.89-1.89V175.2c0-1.04,0.85-1.89,1.89-1.89h45.54c1.04,0,1.89,0.85,1.89,1.89v12.66
	c0,1.04-0.85,1.89-1.89,1.89h-27.45c-1.04,0-1.89,0.85-1.89,1.89v28.28C616.79,220.96,617.63,221.8,618.68,221.8z"/>
<path class="st4" d="M676.05,249.98L654,175.75c-0.36-1.22,0.55-2.44,1.82-2.44h14.9c0.86,0,1.62,0.58,1.84,1.42l11.6,44.05
	c0.5,1.89,3.18,1.89,3.67,0l11.6-44.05c0.22-0.83,0.97-1.42,1.84-1.42h13.25c1.27,0,2.18,1.22,1.82,2.44l-22.05,74.23
	c-0.05,0.18-0.08,0.36-0.08,0.54v35.96c0,1.05-0.85,1.9-1.9,1.9h-14.28c-1.05,0-1.9-0.85-1.9-1.9v-35.96
	C676.13,250.33,676.1,250.15,676.05,249.98z"/>
<path class="st4" d="M428.57,336.93v4.11c0,10.29-2.74,17.36-8.75,21.51c-1.1,0.76-1.04,2.46,0.12,3.12
	c7.46,4.32,10.44,12.4,10.44,23.21v9.37c0,17.75-9.37,27.29-27.45,27.29h-26.54c-1.05,0-1.9-0.85-1.9-1.9V312.37
	c0-1.05,0.85-1.9,1.9-1.9h25.39C420.52,310.47,428.57,319.18,428.57,336.93z M392.57,328.81v26.61c0,1.05,0.85,1.9,1.9,1.9h5.17
	c6.74,0,10.85-2.96,10.85-12.17v-6.41c0-8.22-2.79-11.84-9.21-11.84h-6.81C393.42,326.91,392.57,327.76,392.57,328.81z
	 M392.57,375.66v31.55c0,1.05,0.85,1.9,1.9,1.9h8.46c6.08,0,9.37-2.79,9.37-11.34v-10.03c0-10.69-3.45-13.98-11.67-13.98h-6.16
	C393.42,373.76,392.57,374.61,392.57,375.66z"/>
<path class="st4" d="M443.12,310.47h14.28c1.05,0,1.9,0.85,1.9,1.9v94.84c0,1.05,0.85,1.9,1.9,1.9h25.96c1.05,0,1.9,0.85,1.9,1.9
	v12.64c0,1.05-0.85,1.9-1.9,1.9h-44.04c-1.05,0-1.9-0.85-1.9-1.9V312.37C441.22,311.32,442.08,310.47,443.12,310.47z"/>
<path class="st4" d="M498.8,310.47h14.38c1.02,0,1.85,0.83,1.85,1.85v111.37c0,1.02-0.83,1.85-1.85,1.85H498.8
	c-1.02,0-1.85-0.83-1.85-1.85V312.32C496.95,311.3,497.78,310.47,498.8,310.47z"/>
<path class="st4" d="M544.3,356.35v67.32c0,1.04-0.84,1.88-1.88,1.88H529.9c-1.04,0-1.88-0.84-1.88-1.88V312.35
	c0-1.04,0.84-1.88,1.88-1.88h19.37c0.85,0,1.59,0.57,1.81,1.39l14.51,53.8c0.57,2.12,3.69,1.71,3.69-0.49v-52.82
	c0-1.04,0.84-1.88,1.88-1.88h12.35c1.04,0,1.88,0.84,1.88,1.88v111.32c0,1.04-0.84,1.88-1.88,1.88h-15.26
	c-0.85,0-1.59-0.57-1.81-1.39l-18.45-68.3C547.41,353.74,544.3,354.15,544.3,356.35z"/>
<path class="st4" d="M620.07,383.4l-3.39,6.37c-0.15,0.28-0.22,0.59-0.22,0.9v32.94c0,1.06-0.86,1.92-1.92,1.92h-14.24
	c-1.06,0-1.92-0.86-1.92-1.92V312.39c0-1.06,0.86-1.92,1.92-1.92h14.24c1.06,0,1.92,0.86,1.92,1.92v39.65
	c0,2.05,2.78,2.67,3.66,0.82l19.49-41.29c0.32-0.67,0.99-1.1,1.74-1.1h13.78c1.42,0,2.35,1.49,1.72,2.77L633.44,361
	c-0.24,0.49-0.26,1.05-0.06,1.55l23.8,60.37c0.5,1.26-0.43,2.63-1.79,2.63h-14.43c-0.8,0-1.51-0.49-1.79-1.23l-15.61-40.69
	C622.97,382.08,620.84,381.95,620.07,383.4z"/>
<path class="st4" d="M689.94,309.15c17.59,0,26.63,10.52,26.63,28.93v1.71c0,1.05-0.85,1.91-1.91,1.91h-13.28
	c-1.05,0-1.91-0.85-1.91-1.91v-2.86c0-8.22-3.29-11.34-9.04-11.34c-5.75,0-9.04,3.12-9.04,11.34c0,23.67,35.35,28.11,35.35,60.99
	c0,18.41-9.21,28.94-26.96,28.94c-17.76,0-26.96-10.52-26.96-28.94v-5.16c0-1.05,0.85-1.91,1.91-1.91H678
	c1.05,0,1.91,0.85,1.91,1.91v6.31c0,8.22,3.62,11.18,9.37,11.18c5.75,0,9.37-2.96,9.37-11.18c0-23.67-35.34-28.11-35.34-60.99
	C663.31,319.67,672.35,309.15,689.94,309.15z"/>
</svg>
