<?xml version="1.0" encoding="utf-8"?>
<!-- Generator: Adobe Illustrator 27.4.0, SVG Export Plug-In . SVG Version: 6.00 Build 0)  -->
<svg version="1.1" id="Layer_1" xmlns="http://www.w3.org/2000/svg" xmlns:xlink="http://www.w3.org/1999/xlink" x="0px" y="0px"
	 viewBox="0 0 841.89 595.28" style="enable-background:new 0 0 841.89 595.28;" xml:space="preserve">
<style type="text/css">
	.st0{fill:#5B5C5C;}
	.st1{fill:#FFFFFF;}
</style>
<g>
	<path class="st0" d="M195.71,296.49c0-31.2,6.52-61.61,18.85-87.93c14.32-30.57,36.07-54.15,61.24-66.4
		c38.02-18.51,81.72-23.76,123.05-14.76c17.74,3.86,32.44,16.92,38.35,34.09c0.1,0.29,0.37,0.57,0.8,0.57h153.41
		c29.92,0,54.27,24.34,54.27,54.27c0,29.92-24.34,54.27-54.27,54.27h-74.95c-0.53,0-0.85,0.44-0.85,0.84c0,0.06,0.01,0.12,0.02,0.19
		c0.86,4.04,1.27,7.79,1.27,11.48c0,7.02-1.5,13.63-4.71,20.8c-4.63,10.32-12.63,19.01-22.55,24.46c-0.32,0.18-0.44,0.5-0.44,0.75
		c0,0.1,0.02,0.2,0.05,0.3c2.18,5.86,3.29,12.01,3.29,18.26c0,7.43-1.54,14.63-4.58,21.41c-4.64,10.34-12.66,19.04-22.6,24.49
		c-0.32,0.18-0.44,0.5-0.44,0.75c0,0.1,0.02,0.19,0.05,0.29c2.1,5.77,3.17,11.8,3.17,17.94c0,7.43-1.54,14.63-4.58,21.41
		c-6.2,13.84-18.08,24.29-32.6,28.69c-51.01,15.44-105.67,11.46-153.91-11.21c-25.36-11.92-47.35-35.28-61.92-65.77
		c-12.62-26.41-19.34-57.02-19.43-88.5L195.71,296.49z"/>
	<path class="st1" d="M415.34,183.45c2.79-15.71-8.05-30.58-23.86-32.73c-34.06-4.62-68.74-0.04-100.43,13.27
		c-2.28,0.96-4.5,2.03-6.68,3.2c-2.91,1.57-5.73,3.33-8.43,5.24c-2.9,2.04-5.67,4.26-8.32,6.62c-2.82,2.52-5.5,5.2-8.04,8
		c-2.69,2.97-5.21,6.09-7.58,9.32c-2.49,3.39-4.8,6.91-6.95,10.52c-2.23,3.75-4.29,7.6-6.18,11.54c-1.94,4.04-3.69,8.16-5.28,12.35
		c-1.61,4.25-3.05,8.56-4.31,12.92c-1.27,4.37-2.37,8.8-3.31,13.26c-0.93,4.42-1.7,8.88-2.3,13.36c-0.6,4.39-1.04,8.81-1.33,13.24
		c-0.28,4.3-0.43,8.62-0.43,12.93s0.14,8.63,0.43,12.93c0.29,4.43,0.74,8.84,1.33,13.24c0.61,4.48,1.38,8.93,2.3,13.36
		c0.94,4.46,2.03,8.88,3.31,13.26c1.27,4.36,2.7,8.68,4.31,12.92c1.59,4.19,3.34,8.31,5.28,12.35c1.89,3.93,3.94,7.79,6.18,11.54
		c2.15,3.61,4.46,7.13,6.95,10.52c2.37,3.23,4.9,6.35,7.58,9.32c2.54,2.81,5.21,5.49,8.04,8c2.65,2.36,5.42,4.58,8.32,6.62
		c2.71,1.91,5.52,3.66,8.43,5.24c2.72,1.47,5.52,2.77,8.4,3.9c0.34,0.13,0.69,0.27,1.04,0.39c40.76,15.18,84.96,18.64,127.59,9.97
		c13.25-2.7,22.7-14.46,22.47-27.98c-0.23-13.53-10.07-24.97-23.41-27.21c-1.97-0.33-3.41-2.03-3.41-4.03c0-0.34,0-0.68,0-1.01
		c0-2.25,1.83-4.08,4.08-4.08c6.36,0,12.71,0,19.07,0c14.75,0,26.98-11.41,28-26.12c1.02-14.7-9.5-27.69-24.09-29.74
		c-2.02-0.28-3.51-2.01-3.51-4.04c0-0.39,0-0.79,0-1.18c0-2.25,1.83-4.08,4.08-4.08c6.58,0,13.16,0,19.74,0
		c15.98,0,28.73-13.32,28.04-29.28c-0.69-15.96-14.54-28.13-30.46-26.76c-2.38,0.21-4.43-1.67-4.43-4.07c0-0.66,0-1.32,0-1.98
		c0-2.25,1.83-4.08,4.08-4.08c43.25,0,86.5,0,129.75,0c15.5,0,28.07-12.57,28.07-28.07c0-15.5-12.57-28.07-28.07-28.07
		c-57.35,0-114.7,0-172.05,0C416.82,188.25,414.9,185.96,415.34,183.45z"/>
</g>
</svg>
